<svg xmlns="http://www.w3.org/2000/svg" xmlns:xlink="http://www.w3.org/1999/xlink" version="1.1" x="0px" y="0px" viewBox="0 0 100 125" enable-background="new 0 0 100 100" xml:space="preserve"><path d="M60,40v-4h-2v-4h-2v-4h-2v-4h-2v-4h-2v-2h-2v2h-2v4h-2v4h-2v4h-2v4h-2v4H18v2h2v2h2v2h2v2h2v2h2v2h2v2h2v2h2v4h-2v4h-2v4h-2  v4h-2v4h-2v4h2h2v-2h4v-2h4v-2h4v-2h4v-2h4v-2h2v2h4v2h4v2h4v2h4v2h4v2h2h2v-2v-2h-2v-4h-2v-4h-2v-4h-2v-4h-2v-4h2v-2h2v-2h2v-2h2  v-2h2v-2h2v-2h2v-2h2v-2H60z M26,76h2v2h-2V76z M70,78v-2h2v2H70z M76,44h-2v2h-2v2h-2v2h-2v2h-2v2h-2v2h-2v4h2v4h2v4h2v4h2v4h-4v-2  h-4v-2h-4v-2h-4v-2h-4v-2h-2v2h-4v2h-4v2h-4v2h-4v2h-4v-4h2v-4h2v-4h2v-4h2v-4h-2v-2h-2v-2h-2v-2h-2v-2h-2v-2h-2v-2h-2v-2h16v-2h2  v-4h2v-4h2v-4h2v-4h2v-4h2v4h2v4h2v4h2v4h2v4h2v2h16V44z"/><text x="0" y="115" fill="#000000" font-size="5px" font-weight="bold" font-family="'Helvetica Neue', Helvetica, Arial-Unicode, Arial, Sans-serif">Created by Jamison Wieser</text><text x="0" y="120" fill="#000000" font-size="5px" font-weight="bold" font-family="'Helvetica Neue', Helvetica, Arial-Unicode, Arial, Sans-serif">from the Noun Project</text></svg>